#N canvas 268 239 450 300 12;
#X floatatom 154 131 5 0 0 0 - - -;
#X floatatom 170 208 5 0 0 0 - - -;
#X obj 58 119 osc~ 440;
#X obj 50 218 output~;
#X floatatom 215 134 5 0 0 0 - - -;
#X floatatom 236 212 5 0 0 0 - - -;
#N canvas 155 115 450 300 --------------- 0;
#X obj 299 59 inlet;
#X obj 88 51 inlet;
#X obj 312 148 outlet;
#X obj 105 133 outlet;
#X obj 220 59 inlet~;
#X obj 222 138 outlet~;
#X obj 152 50 inlet;
#X obj 169 132 outlet;
#X obj -53 58 inlet;
#X obj -36 140 outlet;
#X obj 11 57 inlet;
#X obj 28 139 outlet;
#X connect 0 0 2 0;
#X connect 1 0 3 0;
#X connect 4 0 5 0;
#X connect 6 0 7 0;
#X connect 8 0 9 0;
#X connect 10 0 11 0;
#X restore 97 164 pd ---------------;
#X text 74 50 inlets and outlets (see subwindow);
#X connect 0 0 6 5;
#X connect 2 0 6 4;
#X connect 4 0 6 2;
#X connect 6 2 5 0;
#X connect 6 4 3 0;
#X connect 6 4 3 1;
#X connect 6 5 1 0;
