#N canvas 62 117 671 425 12;
#X obj 62 204 + 60;
#X obj 62 232 mtof;
#X obj 62 260 osc~;
#X obj 62 288 output~;
#X obj 62 173 random 8;
#X obj 62 142 metro 150;
#X obj 62 116 tgl 15 0 empty empty empty 17 7 0 10 -262144 -1 -1 0
1;
#X obj 363 249 + 60;
#X obj 363 277 mtof;
#X obj 363 305 osc~;
#X obj 363 333 output~;
#X obj 366 155 metro 150;
#X obj 363 129 tgl 15 0 empty empty empty 17 7 0 10 -262144 -1 -1 0
1;
#X obj 367 185 random 800;
#X obj 364 216 / 100;
#X text 62 79 in halftones;
#X text 134 172 make a random integer 0-7;
#X text 103 202 add 60 to start at middle C;
#X text 77 27 random pitches;
#X text 364 91 in microtones (cents);
#X text 100 229 convert to Hz.;
#X text 450 185 make a random integer 0-799;
#X text 421 218 adjust range to 0-7.99;
#X text 420 248 and continue as before.;
#X connect 0 0 1 0;
#X connect 1 0 2 0;
#X connect 2 0 3 0;
#X connect 4 0 0 0;
#X connect 5 0 4 0;
#X connect 6 0 5 0;
#X connect 7 0 8 0;
#X connect 8 0 9 0;
#X connect 9 0 10 0;
#X connect 11 0 13 0;
#X connect 12 0 11 0;
#X connect 13 0 14 0;
#X connect 14 0 7 0;
