#N canvas 120 55 565 399 12;
#X obj 363 254 output~;
#X obj 360 219 *~;
#X obj 406 217 osc~;
#X floatatom 407 195 5 0 0 0 - - -;
#X obj 360 187 adc~;
#X obj 11 322 output~;
#X obj 13 289 *~;
#X obj 31 260 osc~;
#X floatatom 32 234 5 0 0 0 - - -;
#X obj 30 162 output~;
#X obj 14 92 osc~;
#X floatatom 14 65 5 0 0 0 - - -;
#X obj 13 121 clip~ -0.2 0.7;
#X text 86 18 waveshaping and ring modulation \, take 1;
#X text 62 88 make a sinusoid;
#X text 124 117 distory it;
#X text 109 172 (hear the result);
#X text 76 260 ... now make another sinusoid;
#X text 42 287 and MULTIPLY by teh distorted waveform;
#X text 83 341 ... and enjoy the result.;
#X text 364 108 you can do this with audio;
#X text 364 132 input as well:;
#X connect 1 0 0 0;
#X connect 1 0 0 1;
#X connect 2 0 1 1;
#X connect 3 0 2 0;
#X connect 4 0 1 0;
#X connect 6 0 5 0;
#X connect 6 0 5 1;
#X connect 7 0 6 1;
#X connect 8 0 7 0;
#X connect 10 0 12 0;
#X connect 11 0 10 0;
#X connect 12 0 9 0;
#X connect 12 0 6 0;
#X connect 12 0 9 1;
