#N canvas 78 252 707 456 16;
#X obj 173 275 *~ 0.1;
#X obj 174 328 dac~;
#X obj 80 414 print~;
#X obj 81 374 bng 15 250 50 0 empty empty empty 17 7 0 10 -262144 -1
-1;
#X obj 176 175 +~ 440;
#X obj 175 234 osc~;
#X obj 176 116 osc~ 3;
#X obj 176 146 *~ 30;
#X text 11 24 patch from Tuesday Jan. 4 with added comments:;
#X text 229 236 this makes the sound;
#X text 273 101 these three objects control;
#X text 273 123 the frequency of the oscillator;
#X text 271 143 below. Frequency will vary from;
#X text 272 167 440-30 to 440+30 \, three times per;
#X text 272 190 second.;
#X text 250 263 this drops the amplitude of the sound;
#X text 249 283 from 1 to 0.1;
#X text 234 336 this goes to your speaker;
#X text 114 370 <-- click here to print;
#X text 155 413 this prints a signal to the Pd window;
#X connect 0 0 2 0;
#X connect 0 0 1 0;
#X connect 0 0 1 1;
#X connect 3 0 2 0;
#X connect 4 0 5 0;
#X connect 5 0 0 0;
#X connect 6 0 7 0;
#X connect 7 0 4 0;
