#N canvas 172 253 722 524 12;
#N canvas 0 0 450 300 (subpatch) 0;
#X array t1.27a 88200 float 2;
#X coords 0 1 88200 -1 200 140 1;
#X restore 423 93 graph;
#X obj 469 422 soundfiler;
#X obj 470 348 loadbang;
#X obj 27 437 dac~;
#X obj 28 358 line~;
#X msg 111 254 0 \, 100000 2268;
#X msg 108 229 100000 \, 0 2268;
#X obj 286 423 tabwrite~ t1.27a;
#X obj 296 395 bng 15 250 50 0 empty empty empty 17 7 0 10 -262144
-1 -1;
#X obj 28 381 tabread4~ t1.27a;
#X obj 27 407 *~ 0.3;
#X msg 470 396 read voice.wav t1.27a;
#X msg 482 371 read oh.wav t1.27a;
#X obj 286 367 hip~ 3;
#X obj 286 340 adc~ 1;
#X msg 113 276 0 \, 88200 2000;
#X msg 116 323 80000 \, 180000 2268;
#X msg 115 299 0 \, 100000;
#X floatatom 31 56 5 0 0 0 - - -;
#X obj 27 170 + 1000;
#X obj 31 102 trigger float float;
#X obj 31 77 * 100;
#X obj 38 228 print;
#X text 160 10 using tabread4~ as a sampler;
#X text 286 300 record from audio;
#X text 287 317 input (e.g. \, mic);
#X text 476 319 read from a soundfile;
#X obj 26 196 pack 0 22.68;
#X text 82 76 (in 100s of samples);
#X text 178 98 two messages;
#X text 156 136 first \, jump to start;
#X text 140 174 ... then go 1000 samples;
#X text 149 191 further in 22.68 msec;
#X text 224 232 test messages;
#X text 80 358 ramp through array;
#X text 84 55 place to start in array;
#X connect 2 0 11 0;
#X connect 4 0 9 0;
#X connect 5 0 4 0;
#X connect 6 0 4 0;
#X connect 8 0 7 0;
#X connect 9 0 10 0;
#X connect 10 0 3 0;
#X connect 10 0 3 1;
#X connect 11 0 1 0;
#X connect 12 0 1 0;
#X connect 13 0 7 0;
#X connect 14 0 13 0;
#X connect 15 0 4 0;
#X connect 16 0 4 0;
#X connect 17 0 4 0;
#X connect 18 0 21 0;
#X connect 19 0 27 0;
#X connect 20 0 19 0;
#X connect 20 1 4 0;
#X connect 20 1 22 0;
#X connect 21 0 20 0;
#X connect 27 0 4 0;
#X connect 27 0 22 0;
