#N canvas 282 4 645 513 10;
#N canvas 0 0 450 300 (subpatch) 0;
#X array t1.27b 88200 float 2;
#X coords 0 1 88200 -1 200 140 1 0 0;
#X restore 356 90 graph;
#X obj 502 421 soundfiler;
#X obj 499 357 loadbang;
#X obj 76 412 dac~;
#X obj 77 314 line~;
#X obj 236 440 tabwrite~ t1.27a;
#X obj 214 420 bng 15 250 50 0 empty empty empty 17 7 0 10 -262144
-1 -1;
#X obj 76 390 *~ 0.3;
#X msg 500 402 read voice.wav t1.27a;
#X msg 513 379 read oh.wav t1.27a;
#X obj 258 406 print~;
#X obj 296 383 bng 15 250 50 0 empty empty empty 17 7 0 10 -262144
-1 -1;
#X obj 234 376 hip~ 3;
#X obj 233 353 adc~ 1;
#X obj 33 130 mtof;
#X floatatom 33 110 5 0 0 0 - - -;
#X floatatom 33 152 5 0 0 0 - - -;
#X obj 33 193 * 100000;
#X obj 29 219 trigger float bang;
#X msg 83 240 0;
#X obj 29 262 pack 0 2268;
#X floatatom 97 193 7 0 0 0 - - -;
#X floatatom 98 175 7 0 0 0 - - -;
#X obj 31 171 / 261.626;
#X obj 77 358 hip~ 3;
#X obj 33 60 tgl 15 0 empty empty empty 17 7 0 10 -262144 -1 -1 0 1
;
#X obj 33 80 metro 500;
#X obj 376 358 osc~ 1000;
#X obj 375 380 *~ 0.3;
#X obj 387 404 bng 15 250 50 0 empty empty empty 17 7 0 10 -262144
-1 -1;
#X obj 376 425 tabwrite~ t1.27a;
#X text 106 7 transposing sampler from an array;
#X text 55 58 metronome on/off;
#X text 83 105 transposition in "midi" (half-tones;
#X text 89 119 with 60 corresponding with original);
#X text 73 151 "pitch" in Hz.;
#X text 160 175 normalize so that 60 -> 1;
#X text 156 194 and then to 100000;
#X text 117 240 rewind to array location 0;
#X text 122 254 and slide forward during 2268 msec;
#X text 120 270 to value calculated above;
#X text 236 330 sample audio in;
#X text 369 332 sample a test tone;
#X text 511 332 read a file;
#X obj 77 337 tabread4~ t1.27b;
#X connect 2 0 8 0;
#X connect 4 0 44 0;
#X connect 6 0 5 0;
#X connect 7 0 3 0;
#X connect 7 0 3 1;
#X connect 8 0 1 0;
#X connect 9 0 1 0;
#X connect 11 0 10 0;
#X connect 12 0 10 0;
#X connect 12 0 5 0;
#X connect 13 0 12 0;
#X connect 14 0 16 0;
#X connect 15 0 14 0;
#X connect 16 0 23 0;
#X connect 17 0 18 0;
#X connect 17 0 21 0;
#X connect 18 0 20 0;
#X connect 18 1 19 0;
#X connect 19 0 4 0;
#X connect 20 0 4 0;
#X connect 23 0 17 0;
#X connect 23 0 22 0;
#X connect 24 0 7 0;
#X connect 25 0 26 0;
#X connect 26 0 15 0;
#X connect 27 0 28 0;
#X connect 28 0 30 0;
#X connect 29 0 30 0;
#X connect 44 0 24 0;
