#N canvas 5 53 640 450 10;
#N canvas 0 0 450 300 (subpatch) 0;
#X array t1.27c 88200 float 2;
#X coords 0 1 88200 -1 200 140 1 0 0;
#X restore 369 76 graph;
#X obj 477 353 soundfiler;
#X obj 472 286 loadbang;
#X obj 39 434 dac~;
#X obj 40 311 line~;
#X obj 350 317 osc~ 1000;
#X obj 349 339 *~ 0.3;
#X obj 326 360 bng 15 250 50 0 empty empty empty 17 7 0 10 -262144
-1 -1;
#X obj 39 412 *~ 0.3;
#X obj 45 70 mtof;
#X floatatom 45 50 5 0 0 0 - - -;
#X floatatom 45 92 5 0 0 0 - - -;
#X obj 43 237 trigger float bang;
#X msg 115 293 0;
#X floatatom 103 135 7 0 0 0 - - -;
#X floatatom 107 115 7 0 0 0 - - -;
#X obj 43 111 / 261.626;
#X obj 40 380 hip~ 3;
#X obj 45 7 tgl 15 0 empty empty empty 17 7 0 10 -262144 -1 -1 0 1
;
#X obj 45 27 metro 500;
#X obj 40 356 *~;
#X obj 164 339 line~;
#X obj 223 283 del 100;
#X msg 225 305 0 50;
#X obj 44 213 float;
#X msg 181 178 0 5;
#X obj 45 190 del 5;
#X msg 182 283 1 50;
#X obj 45 153 trigger bang float bang;
#X text 122 16 Enveloping the sampler. Quickly mute whatever was playing
\, and after 5 msec start the new "note" with an envelope;
#X obj 41 334 tabread4~ t1.27c;
#X text 213 180 first mute the output;
#X text 82 191 5 msec later;
#X text 89 212 ... recall amount to travel;
#X text 151 136 amount to travel;
#X obj 41 285 pack 0 2268;
#X obj 45 133 * 100000;
#X text 169 238 read array at 0 and ramp up envelope;
#X text 202 262 messages to envelope;
#X text 161 358 envelope generator;
#X text 480 258 read file;
#X text 341 296 test tone;
#X obj 351 359 tabwrite~ t1.27c;
#X msg 495 308 read oh.wav t1.27c;
#X msg 475 334 read voice.wav t1.27c;
#X connect 2 0 44 0;
#X connect 4 0 30 0;
#X connect 5 0 6 0;
#X connect 6 0 42 0;
#X connect 7 0 42 0;
#X connect 8 0 3 0;
#X connect 8 0 3 1;
#X connect 9 0 11 0;
#X connect 10 0 9 0;
#X connect 11 0 16 0;
#X connect 12 0 35 0;
#X connect 12 1 13 0;
#X connect 12 1 27 0;
#X connect 12 1 22 0;
#X connect 13 0 4 0;
#X connect 16 0 15 0;
#X connect 16 0 36 0;
#X connect 17 0 8 0;
#X connect 18 0 19 0;
#X connect 19 0 10 0;
#X connect 20 0 17 0;
#X connect 21 0 20 1;
#X connect 22 0 23 0;
#X connect 23 0 21 0;
#X connect 24 0 12 0;
#X connect 25 0 21 0;
#X connect 26 0 24 0;
#X connect 27 0 21 0;
#X connect 28 0 26 0;
#X connect 28 1 24 1;
#X connect 28 2 25 0;
#X connect 30 0 20 0;
#X connect 35 0 4 0;
#X connect 36 0 14 0;
#X connect 36 0 28 0;
#X connect 43 0 1 0;
#X connect 44 0 1 0;
