#N canvas 50 62 626 404 10;
#N canvas 0 0 450 300 (subpatch) 0;
#X array t1.25b 100000 float 2;
#X coords 0 1 100000 -1 200 140 1;
#X restore 364 30 graph;
#X obj 27 59 soundfiler;
#X msg 27 36 read voice.wav t1.25b;
#X obj 27 14 loadbang;
#X obj 36 272 dac~;
#X obj 37 201 line~;
#X msg 43 134 0 \, 100000 2268;
#X obj 36 250 *~ 0.1;
#X msg 33 111 100000 \, 0 2268;
#X msg 56 156 0 \, 100000 1134;
#X msg 64 178 0 \, 100000 2240;
#X obj 340 252 osc~ 1000;
#X obj 339 274 *~ 0.3;
#X obj 341 294 tabwrite~ t1.25b;
#X obj 316 295 bng 15 250 50 0 empty empty empty 17 7 0 10 -262144
-1 -1;
#X obj 37 224 tabread4~ t1.25b;
#X obj 456 308 dac~;
#X obj 456 239 line~;
#X msg 460 216 0 \, 100000 2240;
#X obj 456 262 tabread~ t1.25b;
#X msg 447 197 0 \, 100000 2268;
#X obj 455 286 *~ 0.1;
#X obj 188 272 dac~;
#X obj 188 250 *~ 0.1;
#X obj 189 224 tabread4~ t1.25b;
#X obj 196 153 phasor~;
#X floatatom 195 127 5 0 0 0 - - -;
#X obj 196 175 *~;
#X obj 196 197 +~;
#X floatatom 266 179 5 0 0 0 - - -;
#X floatatom 263 198 5 0 0 0 - - -;
#X obj 224 178 * 100;
#X obj 223 198 * 100;
#X connect 2 0 1 0;
#X connect 3 0 2 0;
#X connect 5 0 15 0;
#X connect 6 0 5 0;
#X connect 7 0 4 0;
#X connect 7 0 4 1;
#X connect 8 0 5 0;
#X connect 9 0 5 0;
#X connect 10 0 5 0;
#X connect 11 0 12 0;
#X connect 12 0 13 0;
#X connect 14 0 13 0;
#X connect 15 0 7 0;
#X connect 17 0 19 0;
#X connect 18 0 17 0;
#X connect 19 0 21 0;
#X connect 20 0 17 0;
#X connect 21 0 16 0;
#X connect 21 0 16 1;
#X connect 23 0 22 0;
#X connect 23 0 22 1;
#X connect 24 0 23 0;
#X connect 25 0 27 0;
#X connect 26 0 25 0;
#X connect 27 0 28 0;
#X connect 28 0 24 0;
#X connect 29 0 31 0;
#X connect 30 0 32 0;
#X connect 31 0 27 1;
#X connect 32 0 28 1;
