#N canvas 5 49 450 300 10;
#X obj 183 38 soundfiler;
#X msg 183 15 read -resize voice.wav t1.25b;
#X obj 166 90 send t1.25b;
#X msg 166 67 resize 10;
#X msg 240 73 resize 20;
#X msg 257 111 resize \$1;
#X floatatom 259 93 5 0 0 0 - - -;
#X connect 1 0 0 0;
#X connect 3 0 2 0;
#X connect 4 0 2 0;
#X connect 5 0 2 0;
#X connect 6 0 5 0;
