#N canvas 66 30 422 243 12;
#X obj 34 51 pack;
#X obj 33 84 unpack;
#X text 154 51 make message with 2 numbers;
#X text 153 84 split msg into 2 numbers;
#X obj 33 116 send;
#X text 164 202 message box syntax;
#X msg 32 199 1 \, 2 \, 3;
#X obj 32 170 trigger;
#X obj 33 143 receive;
#X text 160 126 send message to named object;
#X text 162 153 receive messages to 'send';
#X obj 122 115 s;
#X text 92 116 aka;
#X text 93 145 aka;
#X text 91 172 aka;
#X obj 123 144 r;
#X obj 121 171 t;
#X text 160 172 sed messages in controlled order;
#X text 81 12 new objects 1/20;
