#N canvas 30 78 663 526 12;
#X obj 24 337 dac~;
#X obj 23 308 *~;
#X obj 65 316 line~;
#X obj 23 120 line~;
#X obj 24 149 phasor~;
#X obj 270 454 bng 15 250 50 0 empty empty empty 17 7 0 10 -262144
-1 -1;
#N canvas 0 0 450 300 (subpatch) 0;
#X array tab.1.20a 12 float 3;
#A 0 990 880 1210 1100 770 660 990 98 98 98 98 98;
#X coords 0 1500 12 -1 100 300 1 0 0;
#X restore 523 34 graph;
#X floatatom 23 93 5 0 0 0 - - -;
#X floatatom 235 432 5 0 0 0 - - -;
#X obj 23 207 +~;
#X floatatom 57 209 5 0 0 0 - - -;
#X floatatom 58 181 5 0 0 0 - - -;
#X obj 23 178 *~;
#X obj 22 266 osc~;
#X obj 234 479 tabwrite~ tab.1.20a;
#X msg 79 267 0.03 50;
#X msg 80 292 0 50;
#X obj 22 237 tabread~ tab.1.20a;
#X obj 273 242 tabwrite tab.1.20a;
#X floatatom 395 209 5 0 0 0 - - -;
#X floatatom 355 209 5 0 0 0 - - -;
#X msg 259 111 990 0;
#X msg 271 144 880 1;
#X msg 278 175 1210 2;
#X obj 341 125 bng 15 250 50 0 empty empty empty 17 7 0 10 -262144
-1 -1;
#X msg 239 57 990 0 \, 880 1 \, 1210 2 \, 1100 3;
#X obj 232 406 send tab.1.20a;
#X msg 232 294 0 990 880 1210 1100 770 660 990;
#X text 243 35 sequence of messages;
#X text 18 67 from 1.18 class:;
#X text 66 94 sequence speed;
#X text 99 179 sequence length;
#X text 100 208 onset into array;
#X text 118 289 on/off;
#X text 320 92 as separate message;
#X text 324 106 boxes;
#X text 338 187 using number boxes;
#X text 352 223 value;
#X text 406 224 location;
#X text 228 273 values in a batch using 'send' object;
#X text 309 445 from an audio signal;
#X msg 249 337 read file1.txt;
#X msg 257 380 read file1.txt;
#X text 244 316 read from a text file;
#X text 252 359 write to a text file;
#X text 99 4 Ways to get numbers into and out of arrays;
#X connect 1 0 0 0;
#X connect 1 0 0 1;
#X connect 2 0 1 1;
#X connect 3 0 4 0;
#X connect 4 0 12 0;
#X connect 5 0 14 0;
#X connect 7 0 3 0;
#X connect 8 0 14 0;
#X connect 9 0 17 0;
#X connect 10 0 9 1;
#X connect 11 0 12 1;
#X connect 12 0 9 0;
#X connect 13 0 1 0;
#X connect 15 0 2 0;
#X connect 16 0 2 0;
#X connect 17 0 13 0;
#X connect 19 0 18 1;
#X connect 20 0 18 0;
#X connect 21 0 18 0;
#X connect 22 0 18 0;
#X connect 23 0 18 0;
#X connect 24 0 21 0;
#X connect 24 0 22 0;
#X connect 24 0 23 0;
#X connect 25 0 18 0;
#X connect 27 0 26 0;
#X connect 41 0 26 0;
#X connect 42 0 26 0;
