#N canvas 62 48 623 380 12;
#N canvas 0 0 450 300 (subpatch) 0;
#X array tab.1.20b 12 float 3;
#A 0 990 880 1210 1063 190 660 990 374.809 374.809 384.816 394.823
629.98;
#X coords 0 1500 12 -1 100 300 1 0 0;
#X restore 511 37 graph;
#X obj 354 253 send dog;
#X floatatom 354 226 5 0 0 0 - - -;
#X obj 361 308 receive dog;
#X floatatom 361 333 5 0 0 0 - - -;
#X msg 421 222 5 6 7 8;
#X floatatom 26 38 5 0 0 0 - - -;
#X floatatom 51 59 5 0 0 0 - - -;
#X obj 27 83 pack;
#X obj 28 113 print;
#X floatatom 33 182 5 0 0 0 - - -;
#X obj 46 305 print z;
#X obj 32 215 pack 0 4;
#X obj 89 246 unpack 0 0;
#X floatatom 88 275 5 0 0 0 - - -;
#X floatatom 156 275 5 0 0 0 - - -;
#X text 114 9 send \, receive \, pack \, and unpack;
#X text 25 164 number box to control location 4 in table;
#X text 114 214 0 and 4 initialize inlets;
#X text 353 195 send and receive;
#X obj 30 335 tabwrite tab.1.20b;
#X connect 2 0 1 0;
#X connect 3 0 4 0;
#X connect 5 0 1 0;
#X connect 6 0 8 0;
#X connect 7 0 8 1;
#X connect 8 0 9 0;
#X connect 10 0 12 0;
#X connect 12 0 11 0;
#X connect 12 0 13 0;
#X connect 12 0 20 0;
#X connect 13 0 14 0;
#X connect 13 1 15 0;
