#N canvas 177 31 681 557 12;
#X obj 41 378 dac~;
#X obj 40 349 *~;
#X obj 58 321 line~;
#X obj 41 32 line~;
#X obj 42 61 phasor~;
#N canvas 0 0 450 300 (subpatch) 0;
#X array tab.1.20a 12 float 3;
#A 0 990 880 1210 1100 770 660 990 550 550 550 550 550;
#X coords 0 1500 12 -1 100 300 1 0 0;
#X restore 523 34 graph;
#X floatatom 41 5 5 0 0 0 - - -;
#X obj 41 119 +~;
#X floatatom 76 120 5 0 0 0 - - -;
#X floatatom 75 89 5 0 0 0 - - -;
#X obj 41 90 *~;
#X obj 40 178 osc~;
#X obj 40 149 tabread~ tab.1.20a;
#X obj 279 223 tabwrite tab.1.20a;
#X obj 422 406 send tab.1.20a;
#X msg 423 379 0 990 880 1210 1100 770 660 990;
#X obj 59 250 dbtorms;
#X floatatom 58 227 5 0 80 0 - - -;
#X floatatom 69 274 8 0 0 0 - - -;
#X obj 58 296 pack 0 50;
#X obj 156 102 pack 0 0;
#X floatatom 156 50 5 0 0 0 - - -;
#X obj 185 496 *;
#X floatatom 185 524 5 0 0 0 - - -;
#X obj 73 467 trigger float float;
#X obj 156 75 mtof;
#X floatatom 223 50 5 0 0 0 - - -;
#X obj 223 75 mtof;
#X floatatom 294 52 5 0 0 0 - - -;
#X obj 294 77 mtof;
#X floatatom 363 53 5 0 0 0 - - -;
#X obj 363 78 mtof;
#X floatatom 434 52 5 0 0 0 - - -;
#X obj 434 77 mtof;
#X obj 223 103 pack 0 1;
#X obj 294 104 pack 0 2;
#X obj 363 105 pack 0 3;
#X obj 433 105 pack 0 4;
#X text 103 225 <--gain in dB;
#X text 137 296 using the pack object;
#X text 135 312 you can control gain in dB;
#X text 137 329 but still de-click with line~;
#X obj 333 530 tabwrite tab.1.20a;
#X floatatom 332 433 5 0 0 0 - - -;
#X obj 332 505 pack 550 0;
#X msg 332 481 550;
#X obj 332 458 t b f;
#X text 169 26 pack and mtof to put pitches in table;
#X obj 27 476 *;
#X floatatom 27 504 5 0 0 0 - - -;
#X floatatom 27 447 5 0 0 0 - - -;
#X text 31 420 using trigger to fix order problems;
#X text 31 522 wrong;
#X text 134 523 right;
#X text 385 437 using trigger to send number box;
#X text 385 454 values into right side inlet (and;
#X text 388 472 then 550 into left side).;
#X connect 1 0 0 0;
#X connect 1 0 0 1;
#X connect 2 0 1 1;
#X connect 3 0 4 0;
#X connect 4 0 10 0;
#X connect 6 0 3 0;
#X connect 7 0 12 0;
#X connect 8 0 7 1;
#X connect 9 0 10 1;
#X connect 10 0 7 0;
#X connect 11 0 1 0;
#X connect 12 0 11 0;
#X connect 15 0 14 0;
#X connect 16 0 18 0;
#X connect 16 0 19 0;
#X connect 17 0 16 0;
#X connect 19 0 2 0;
#X connect 20 0 13 0;
#X connect 21 0 25 0;
#X connect 22 0 23 0;
#X connect 24 0 22 0;
#X connect 24 1 22 1;
#X connect 25 0 20 0;
#X connect 26 0 27 0;
#X connect 27 0 34 0;
#X connect 28 0 29 0;
#X connect 29 0 35 0;
#X connect 30 0 31 0;
#X connect 31 0 36 0;
#X connect 32 0 33 0;
#X connect 33 0 37 0;
#X connect 34 0 13 0;
#X connect 35 0 13 0;
#X connect 36 0 13 0;
#X connect 37 0 13 0;
#X connect 43 0 46 0;
#X connect 44 0 42 0;
#X connect 45 0 44 0;
#X connect 46 0 45 0;
#X connect 46 1 44 1;
#X connect 48 0 49 0;
#X connect 50 0 48 0;
#X connect 50 0 48 1;
#X connect 50 0 24 0;
