#N canvas 37 61 450 300 10;
#X obj 86 127 f;
#X obj 125 123 + 1;
#X obj 125 150 mod 8;
#X obj 86 92 metro 150;
#X obj 87 69 tgl 15 0 empty empty empty 17 7 0 10 -262144 -1 -1 0 1
;
#X floatatom 86 149 5 0 0 0 - - -;
#N canvas 0 0 450 300 (subpatch) 0;
#X array array1 8 float 3;
#A 0 69.7435 44.7432 36.8861 59.7434 66.8863 51.8862 29.0288 19.743
;
#X coords 0 100 8 0 200 140 1 0 0;
#X restore 210 114 graph;
#X obj 86 177 tabread array1;
#X floatatom 86 199 5 0 0 0 - - -;
#X text 37 15 Apropos of nothing \, a table-based sequencer driven
by a metronome:;
#X connect 0 0 1 0;
#X connect 0 0 5 0;
#X connect 1 0 2 0;
#X connect 2 0 0 1;
#X connect 3 0 0 0;
#X connect 4 0 3 0;
#X connect 5 0 7 0;
#X connect 7 0 8 0;
