#N canvas 55 73 681 630 16;
#X obj 194 386 output~;
#X obj 166 202 adc~;
#X obj 167 231 *~;
#X obj 219 235 tgl 15 0 empty empty empty 17 7 0 10 -262144 -1 -1 0
1;
#X obj 246 239 *~;
#X obj 298 243 tgl 15 0 empty empty empty 17 7 0 10 -262144 -1 -1 0
1;
#X obj 246 207 *~ 0.1;
#X obj 246 179 osc~ 500;
#X floatatom 245 155 5 0 0 0 - - -;
#X obj 246 272 +~;
#X obj 346 240 *~;
#X obj 398 244 tgl 15 0 empty empty empty 17 7 0 10 -262144 -1 -1 0
1;
#X obj 346 208 *~ 0.1;
#X obj 346 180 noise~;
#X floatatom 423 384 5 0 0 0 - - -;
#X obj 423 409 mtof;
#X floatatom 423 437 8 0 0 0 - - -;
#X msg 427 491 1000;
#X obj 450 523 /;
#X obj 429 463 t b f;
#X obj 450 551 s msec;
#X floatatom 463 270 5 0 100 0 - - -;
#X obj 463 296 / 100;
#X text 485 245 GAIN;
#X text 456 226 RECIRCULATION;
#X text 185 122 sends (select inputs);
#X text 412 354 delay from pitch;
#X text 283 319 calculate;
#N canvas 182 80 450 300 small-block 0;
#X obj 119 208 delwrite~ delay1 5000;
#X floatatom 116 89 5 0 5000 0 - - -;
#X obj 117 115 delread~ delay1;
#X obj 119 175 +~;
#X obj 118 145 *~;
#X obj 115 58 r msec;
#X text 115 15 delay;
#X text 115 32 time;
#X obj 26 216 outlet~;
#X obj 254 149 inlet;
#X obj 165 176 inlet~;
#X obj 274 71 block~ 1;
#X connect 1 0 2 0;
#X connect 2 0 4 0;
#X connect 3 0 0 0;
#X connect 3 0 8 0;
#X connect 4 0 3 0;
#X connect 5 0 1 0;
#X connect 9 0 4 1;
#X connect 10 0 3 1;
#X restore 195 347 pd small-block;
#X text 23 13 Using a subpatch with a block~ object to get a small
block size (1 sample) in a delay loop. Now the comb filter's cycle
frequency can go all the way up to the sample rate.;
#X connect 1 0 2 0;
#X connect 2 0 9 0;
#X connect 3 0 2 1;
#X connect 4 0 9 0;
#X connect 5 0 4 1;
#X connect 6 0 4 0;
#X connect 7 0 6 0;
#X connect 8 0 7 0;
#X connect 9 0 28 0;
#X connect 10 0 9 1;
#X connect 11 0 10 1;
#X connect 12 0 10 0;
#X connect 13 0 12 0;
#X connect 14 0 15 0;
#X connect 15 0 16 0;
#X connect 16 0 19 0;
#X connect 17 0 18 0;
#X connect 18 0 20 0;
#X connect 19 0 17 0;
#X connect 19 1 18 1;
#X connect 21 0 22 0;
#X connect 22 0 28 1;
#X connect 28 0 0 0;
#X connect 28 0 0 1;
