#N canvas 132 101 601 519 12;
#X obj 127 407 output~;
#X obj 11 197 adc~;
#X obj 12 226 *~;
#X obj 50 229 tgl 15 0 empty empty empty 17 7 0 10 -262144 -1 -1 0
1;
#X obj 91 234 *~;
#X obj 128 236 tgl 15 0 empty empty empty 17 7 0 10 -262144 -1 -1 0
1;
#X obj 91 202 *~ 0.1;
#X obj 91 174 osc~ 500;
#X floatatom 90 150 5 0 0 0 - - -;
#X obj 165 274 +~;
#X obj 191 235 *~;
#X obj 229 234 tgl 15 0 empty empty empty 17 7 0 10 -262144 -1 -1 0
1;
#X obj 191 203 *~ 0.1;
#X obj 191 175 noise~;
#X floatatom 169 339 5 0 0 0 - - -;
#X obj 169 359 mtof;
#X floatatom 169 382 8 0 0 0 - - -;
#X text 80 107 sends (select inputs);
#X obj 126 379 lop~;
#X obj 4 358 output~;
#X obj 248 409 output~;
#X obj 407 403 output~;
#X obj 250 376 hip~;
#X obj 408 341 bp~;
#X floatatom 464 334 5 0 1000 0 - - -;
#X obj 454 373 + 1;
#X obj 408 374 *~;
#X obj 307 66 table foo 10;
#X msg 115 52 \; foo 0 1 0 0 0 0 0 0 0 0;
#X obj 271 234 tabplay~ foo;
#X obj 273 216 bng 15 250 50 0 empty empty empty 17 7 0 10 -262144
-1 -1;
#X text 273 193 new: impulse;
#X floatatom 290 333 5 0 0 0 - - -;
#X obj 290 353 mtof;
#X floatatom 290 376 8 0 0 0 - - -;
#X floatatom 428 250 5 0 0 0 - - -;
#X obj 428 270 mtof;
#X floatatom 428 293 8 0 0 0 - - -;
#X text 43 16 some filters provided by Pd:;
#X text 118 470 lowpass;
#X text 251 474 highpass;
#X text 411 470 bandpass;
#X text 422 227 center frequency;
#X text 468 314 Q;
#X text 487 362 adjust gain;
#X text 499 377 for Q;
#X connect 1 0 2 0;
#X connect 2 0 9 0;
#X connect 3 0 2 1;
#X connect 4 0 9 0;
#X connect 5 0 4 1;
#X connect 6 0 4 0;
#X connect 7 0 6 0;
#X connect 8 0 7 0;
#X connect 9 0 18 0;
#X connect 9 0 19 0;
#X connect 9 0 19 1;
#X connect 9 0 22 0;
#X connect 9 0 23 0;
#X connect 10 0 9 1;
#X connect 11 0 10 1;
#X connect 12 0 10 0;
#X connect 13 0 12 0;
#X connect 14 0 15 0;
#X connect 15 0 16 0;
#X connect 16 0 18 1;
#X connect 18 0 0 0;
#X connect 18 0 0 1;
#X connect 22 0 20 0;
#X connect 22 0 20 1;
#X connect 23 0 26 0;
#X connect 24 0 23 2;
#X connect 24 0 25 0;
#X connect 25 0 26 1;
#X connect 26 0 21 0;
#X connect 26 0 21 1;
#X connect 29 0 9 1;
#X connect 30 0 29 0;
#X connect 32 0 33 0;
#X connect 33 0 34 0;
#X connect 34 0 22 1;
#X connect 35 0 36 0;
#X connect 36 0 37 0;
#X connect 37 0 23 1;
