#N canvas 20 49 621 398 16;
#X obj 321 216 adc~;
#X floatatom 39 215 5 0 5000 0 - - -;
#X obj 322 245 *~;
#X obj 374 249 tgl 15 0 empty empty empty 17 7 0 10 -262144 -1 -1 0
1;
#X obj 401 253 *~;
#X obj 453 257 tgl 15 0 empty empty empty 17 7 0 10 -262144 -1 -1 0
1;
#X obj 401 221 *~ 0.1;
#X obj 401 193 osc~ 500;
#X floatatom 400 169 5 0 0 0 - - -;
#X obj 401 286 +~;
#X obj 501 254 *~;
#X obj 553 258 tgl 15 0 empty empty empty 17 7 0 10 -262144 -1 -1 1
1;
#X obj 501 222 *~ 0.1;
#X obj 501 194 noise~;
#X floatatom 520 327 5 0 0 0 - - -;
#X obj 520 352 mtof;
#X floatatom 520 380 5 0 0 0 - - -;
#X obj 38 184 r msec;
#X obj 450 551 s msec;
#X floatatom 144 215 5 0 100 0 - - -;
#X obj 144 241 / 100;
#X text 166 190 GAIN;
#X text 137 171 RECIRCULATION;
#X text 23 13 Recirculating delay with controllable gain. Here you
can leave one of the inputs open and the recirculation gain at any
value less than 1 and get a stable result. This is sometimes called
a recirculating comb filter \, and is the basis of the Karplus-Strong
synthesis technique.;
#X text 340 136 sends (select inputs);
#X text 38 141 delay;
#X text 38 158 time;
#N canvas 59 92 522 325 delay 0;
#X obj 25 223 +~;
#X obj 25 144 *~;
#X obj 66 225 inlet~;
#X obj 11 288 outlet~;
#X obj 21 41 delread~ delay-real;
#X obj 24 257 delwrite~ delay-real 1;
#X obj 123 11 block~ 1;
#X obj 230 42 delread~ delay-im;
#X obj 266 258 delwrite~ delay-im 1;
#X obj 399 81 inlet;
#X obj 455 83 inlet;
#X obj 74 149 *~;
#X obj 25 175 -~;
#X obj 177 154 *~;
#X obj 226 159 *~;
#X obj 177 185 +~;
#X obj 179 286 outlet~;
#X connect 0 0 3 0;
#X connect 0 0 5 0;
#X connect 1 0 12 0;
#X connect 2 0 0 1;
#X connect 4 0 1 0;
#X connect 4 0 13 0;
#X connect 7 0 11 0;
#X connect 7 0 14 0;
#X connect 9 0 1 1;
#X connect 9 0 14 1;
#X connect 10 0 11 1;
#X connect 10 0 13 1;
#X connect 11 0 12 1;
#X connect 12 0 0 0;
#X connect 13 0 15 0;
#X connect 14 0 15 1;
#X connect 15 0 8 0;
#X connect 15 0 16 0;
#X restore 107 398 pd delay;
#X obj 39 455 output~;
#X obj 217 435 expr $f1 * cos($f2);
#X obj 247 465 expr $f1 * sin($f2);
#X obj 515 413 * 6.283;
#X obj 515 445 / 44100;
#X floatatom 520 488 5 0 0 0 - - -;
#X obj 283 378 t b f;
#X floatatom 215 492 5 0 0 0 - - -;
#X floatatom 276 496 5 0 0 0 - - -;
#X obj 118 456 output~;
#X connect 0 0 2 0;
#X connect 2 0 9 0;
#X connect 3 0 2 1;
#X connect 4 0 9 0;
#X connect 5 0 4 1;
#X connect 6 0 4 0;
#X connect 7 0 6 0;
#X connect 8 0 7 0;
#X connect 9 0 27 0;
#X connect 10 0 9 1;
#X connect 11 0 10 1;
#X connect 12 0 10 0;
#X connect 13 0 12 0;
#X connect 14 0 15 0;
#X connect 15 0 16 0;
#X connect 16 0 31 0;
#X connect 17 0 1 0;
#X connect 19 0 20 0;
#X connect 20 0 29 0;
#X connect 20 0 30 0;
#X connect 27 0 28 0;
#X connect 27 0 28 1;
#X connect 27 1 37 0;
#X connect 27 1 37 1;
#X connect 29 0 27 1;
#X connect 29 0 35 0;
#X connect 30 0 27 2;
#X connect 30 0 36 0;
#X connect 31 0 32 0;
#X connect 32 0 33 0;
#X connect 32 0 34 0;
#X connect 34 0 29 0;
#X connect 34 0 30 0;
#X connect 34 1 29 1;
#X connect 34 1 30 1;
