#N canvas 111 86 462 395 10;
#X obj 61 344 dac~;
#X msg 98 184 330;
#X obj 59 250 osc~;
#X floatatom 62 131 5 0 0 0 - - -;
#X floatatom 115 131 5 0 0 0 - - -;
#X obj 58 286 clip~ -2 2;
#X obj 57 311 *~ 0.05;
#X msg 132 186 440;
#X floatatom 165 132 5 0 0 0 - - -;
#X floatatom 218 132 5 0 0 0 - - -;
#X obj 64 155 metro 100;
#X obj 167 156 metro 161.8;
#X text 57 114 on/off;
#X text 118 99 time;
#X text 115 112 (msec);
#X floatatom 60 226 5 0 0 0 - - -;
#X text 38 40 two metronomes fighting over the frequency of an oscillator
;
#X connect 1 0 15 0;
#X connect 2 0 5 0;
#X connect 3 0 10 0;
#X connect 4 0 10 1;
#X connect 5 0 6 0;
#X connect 6 0 0 0;
#X connect 6 0 0 1;
#X connect 7 0 15 0;
#X connect 8 0 11 0;
#X connect 9 0 11 1;
#X connect 10 0 1 0;
#X connect 11 0 7 0;
#X connect 15 0 2 0;
