#N canvas 8 55 737 409 12;
#X obj 138 303 dac~;
#X obj 137 274 *~;
#X obj 254 342 line~;
#X msg 347 275 0.03 500;
#X msg 346 299 0 500;
#X obj 99 242 osc~;
#X obj 66 156 mtof;
#X floatatom 68 95 5 0 0 0 - - -;
#X floatatom 67 185 8 0 0 0 - - -;
#X obj 141 241 osc~;
#X obj 182 242 osc~;
#X obj 156 156 mtof;
#X floatatom 157 185 5 0 0 0 - - -;
#X obj 217 158 mtof;
#X floatatom 217 187 5 0 0 0 - - -;
#X obj 153 125 + 4;
#X obj 216 127 + 7;
#X obj 436 90 ftom;
#X obj 437 140 mtof;
#X floatatom 437 165 8 0 0 0 - - -;
#X floatatom 436 114 8 0 0 0 - - -;
#X floatatom 436 67 5 0 0 0 - - -;
#X floatatom 510 163 8 0 0 0 - - -;
#X floatatom 510 116 8 0 0 0 - - -;
#X floatatom 511 68 5 0 0 0 - - -;
#X obj 510 90 dbtorms;
#X obj 510 138 rmstodb;
#X floatatom 252 275 8 0 0 0 - - -;
#X floatatom 252 223 5 0 90 0 - - -;
#X obj 252 249 dbtorms;
#X text 104 9 converting to and from MIDI pitches and decibels;
#X text 56 72 major chord in MIDI -- 60 for middle C;
#X text 293 214 loudness in dB -- next time we'll see how to ramp to
this value.;
#X text 419 285 the old way to turn on/off;
#X text 449 44 testing the objects;
#X connect 1 0 0 0;
#X connect 1 0 0 1;
#X connect 2 0 1 1;
#X connect 3 0 2 0;
#X connect 4 0 2 0;
#X connect 5 0 1 0;
#X connect 6 0 8 0;
#X connect 7 0 6 0;
#X connect 7 0 15 0;
#X connect 7 0 16 0;
#X connect 8 0 5 0;
#X connect 9 0 1 0;
#X connect 10 0 1 0;
#X connect 11 0 12 0;
#X connect 12 0 9 0;
#X connect 13 0 14 0;
#X connect 14 0 10 0;
#X connect 15 0 11 0;
#X connect 16 0 13 0;
#X connect 17 0 20 0;
#X connect 18 0 19 0;
#X connect 20 0 18 0;
#X connect 21 0 17 0;
#X connect 23 0 26 0;
#X connect 24 0 25 0;
#X connect 25 0 23 0;
#X connect 26 0 22 0;
#X connect 27 0 2 0;
#X connect 28 0 29 0;
#X connect 29 0 27 0;
