#N canvas 56 3 489 379 16;
#X obj 29 228 expr;
#X text 86 229 mathematical expressions;
#X obj 29 261 wrap~;
#X obj 29 293 min~;
#X obj 29 324 max~;
#X text 88 261 signal modulo 1;
#X text 78 323 higher of two inputs;
#X text 81 296 lower of two inputs;
#N canvas 7 49 450 300 (subpatch) 0;
#X restore 32 53 pd;
#X text 72 54 sub-patch;
#X obj 29 199 poly;
#X obj 32 117 route;
#X text 93 117 route messages via first element;
#X text 94 197 polyphonic voice allocator;
#X text 107 16 2/01:;
#X text 113 166 not yet:;
#X obj 31 84 inlet;
#X text 98 85 sprout an inlet on a sub-patch;
