#N canvas 185 85 473 491 10;
#X obj 39 434 dac~;
#X obj 40 311 line~;
#X obj 39 412 *~ 0.3;
#X obj 44 81 mtof;
#X floatatom 44 61 5 0 0 0 - - -;
#X floatatom 44 103 5 0 0 0 - - -;
#X obj 43 237 trigger float bang;
#X msg 115 293 0;
#X floatatom 102 146 7 0 0 0 - - -;
#X floatatom 106 126 7 0 0 0 - - -;
#X obj 42 122 / 261.626;
#X obj 40 380 hip~ 3;
#X obj 40 356 *~;
#X obj 164 339 line~;
#X msg 225 305 0 50;
#X obj 44 213 float;
#X msg 151 282 0 5;
#X obj 45 190 del 5;
#X obj 44 164 trigger bang float bang;
#X text 213 180 first mute the output;
#X text 82 191 5 msec later;
#X text 89 212 ... recall amount to travel;
#X text 150 147 amount to travel;
#X obj 41 285 pack 0 2268;
#X obj 44 144 * 100000;
#X text 169 238 read array at 0 and ramp up envelope;
#X text 202 262 messages to envelope;
#X text 161 358 envelope generator;
#X obj 42 17 inlet;
#X msg 183 283 1 10;
#X obj 42 39 unpack;
#X obj 223 283 del;
#X obj 41 334 tabread4~ t2.01c;
#X text 92 17 inlet takes messages with pitch and duration;
#X text 90 42 duration goes to "del" object below and pitch gets used
as in the previous example.;
#X connect 1 0 32 0;
#X connect 2 0 0 0;
#X connect 2 0 0 1;
#X connect 3 0 5 0;
#X connect 4 0 3 0;
#X connect 5 0 10 0;
#X connect 6 0 23 0;
#X connect 6 1 7 0;
#X connect 6 1 29 0;
#X connect 6 1 31 0;
#X connect 7 0 1 0;
#X connect 10 0 9 0;
#X connect 10 0 24 0;
#X connect 11 0 2 0;
#X connect 12 0 11 0;
#X connect 13 0 12 1;
#X connect 14 0 13 0;
#X connect 15 0 6 0;
#X connect 16 0 13 0;
#X connect 17 0 15 0;
#X connect 18 0 17 0;
#X connect 18 1 15 1;
#X connect 18 2 16 0;
#X connect 23 0 1 0;
#X connect 24 0 8 0;
#X connect 24 0 18 0;
#X connect 28 0 30 0;
#X connect 29 0 13 0;
#X connect 30 0 4 0;
#X connect 30 1 31 1;
#X connect 31 0 14 0;
#X connect 32 0 12 0;
