#N canvas 63 27 690 464 16;
#X obj 58 313 output~;
#X obj 58 70 adc~;
#X obj 58 98 delwrite~ delay1 5000;
#X floatatom 58 246 5 0 5000 0 - - -;
#X obj 59 274 delread~ delay1;
#X obj 271 318 output~;
#X floatatom 327 247 5 0 5000 0 - - -;
#X obj 328 280 delread~ delay1;
#X text 76 23 delays using delwrite~ and delread~;
#X text 285 69 establish a delay line named "delay1" \,;
#X text 283 90 5000 msec in length;
#X text 47 155 Read from teh delay line at two controllable delay times.
The delay time must be at least zero and no more than the length odf
the delay line.;
#X connect 1 0 2 0;
#X connect 3 0 4 0;
#X connect 4 0 0 0;
#X connect 6 0 7 0;
#X connect 7 0 5 1;
