#N canvas 74 122 678 708 16;
#X obj 43 364 output~;
#X obj 250 112 adc~;
#X obj 106 278 delwrite~ delay1 5000;
#X floatatom 20 253 5 0 5000 0 - - -;
#X obj 43 322 delread~ delay1;
#X obj 251 141 *~;
#X obj 105 245 +~;
#X obj 106 170 *~;
#X obj 131 142 tgl 15 0 empty empty empty 17 7 0 10 -262144 -1 -1 0
1;
#X obj 303 145 tgl 15 0 empty empty empty 17 7 0 10 -262144 -1 -1 0
1;
#X text 64 113 recirculation;
#X obj 351 197 *~;
#X obj 403 201 tgl 15 0 empty empty empty 17 7 0 10 -262144 -1 -1 0
1;
#X obj 351 165 *~ 0.1;
#X obj 351 275 output~;
#X obj 351 137 osc~ 500;
#X floatatom 353 111 5 0 0 0 - - -;
#X obj 351 230 +~;
#X obj 510 180 *~;
#X obj 562 184 tgl 15 0 empty empty empty 17 7 0 10 -262144 -1 -1 0
1;
#X obj 510 148 *~ 0.1;
#X obj 510 120 noise~;
#X floatatom 256 500 5 0 0 0 - - -;
#X obj 256 525 mtof;
#X floatatom 256 553 5 0 0 0 - - -;
#X msg 260 607 1000;
#X obj 283 639 /;
#X obj 262 579 t b f;
#X obj 19 222 r msec;
#X obj 283 667 s msec;
#X text 44 18 Recirculating delay line. The recirculation has no gain
control so if 'recirculation' is turned on the sound loops forever.
;
#X text 26 453 Here's how to calculate the length of delay necessary
for a specific resonant pitch:;
#X text 303 122 ADC;
#X text 424 193 OSC;
#X text 581 181 NOISE;
#X text 289 78 various input sources ("sends");
#X text 137 204 add sends to;
#X text 135 222 recirculation;
#X text 120 382 delay output gain;
#X text 349 334 input monitor gain;
#X text 16 177 delay;
#X text 16 198 time;
#X connect 1 0 5 0;
#X connect 3 0 4 0;
#X connect 4 0 0 0;
#X connect 4 0 7 0;
#X connect 5 0 17 0;
#X connect 6 0 2 0;
#X connect 7 0 6 0;
#X connect 8 0 7 1;
#X connect 9 0 5 1;
#X connect 11 0 17 0;
#X connect 12 0 11 1;
#X connect 13 0 11 0;
#X connect 15 0 13 0;
#X connect 16 0 15 0;
#X connect 17 0 6 1;
#X connect 17 0 14 0;
#X connect 18 0 17 1;
#X connect 19 0 18 1;
#X connect 20 0 18 0;
#X connect 21 0 20 0;
#X connect 22 0 23 0;
#X connect 23 0 24 0;
#X connect 24 0 27 0;
#X connect 25 0 26 0;
#X connect 26 0 29 0;
#X connect 27 0 25 0;
#X connect 27 1 26 1;
#X connect 28 0 3 0;
