#N canvas 101 125 621 587 16;
#X obj 124 314 output~;
#X obj 321 216 adc~;
#X obj 103 376 delwrite~ delay1 5000;
#X floatatom 39 215 5 0 5000 0 - - -;
#X obj 39 411 delread~ delay1;
#X obj 322 245 *~;
#X obj 104 281 +~;
#X obj 103 251 *~;
#X obj 374 249 tgl 15 0 empty empty empty 17 7 0 10 -262144 -1 -1 0
1;
#X obj 401 253 *~;
#X obj 453 257 tgl 15 0 empty empty empty 17 7 0 10 -262144 -1 -1 0
1;
#X obj 401 221 *~ 0.1;
#X obj 401 193 osc~ 500;
#X floatatom 400 169 5 0 0 0 - - -;
#X obj 401 286 +~;
#X obj 501 254 *~;
#X obj 553 258 tgl 15 0 empty empty empty 17 7 0 10 -262144 -1 -1 0
1;
#X obj 501 222 *~ 0.1;
#X obj 501 194 noise~;
#X floatatom 423 384 5 0 0 0 - - -;
#X obj 423 409 mtof;
#X floatatom 423 437 5 0 0 0 - - -;
#X msg 427 491 1000;
#X obj 450 523 /;
#X obj 429 463 t b f;
#X obj 38 184 r msec;
#X obj 450 551 s msec;
#X floatatom 144 215 5 0 100 0 - - -;
#X obj 144 241 / 100;
#X text 166 190 GAIN;
#X text 137 171 RECIRCULATION;
#X text 23 13 Recirculating delay with controllable gain. Here you
can leave one of the inputs open and the recirculation gain at any
value less than 1 and get a stable result. This is sometimes called
a recirculating comb filter \, and is the basis of the Karplus-Strong
synthesis technique.;
#X text 340 136 sends (select inputs);
#X text 412 354 delay from pitch;
#X text 438 333 calculate;
#X text 38 141 delay;
#X text 38 158 time;
#X connect 1 0 5 0;
#X connect 3 0 4 0;
#X connect 4 0 7 0;
#X connect 5 0 14 0;
#X connect 6 0 2 0;
#X connect 6 0 0 0;
#X connect 6 0 0 1;
#X connect 7 0 6 0;
#X connect 8 0 5 1;
#X connect 9 0 14 0;
#X connect 10 0 9 1;
#X connect 11 0 9 0;
#X connect 12 0 11 0;
#X connect 13 0 12 0;
#X connect 14 0 6 1;
#X connect 15 0 14 1;
#X connect 16 0 15 1;
#X connect 17 0 15 0;
#X connect 18 0 17 0;
#X connect 19 0 20 0;
#X connect 20 0 21 0;
#X connect 21 0 24 0;
#X connect 22 0 23 0;
#X connect 23 0 26 0;
#X connect 24 0 22 0;
#X connect 24 1 23 1;
#X connect 25 0 3 0;
#X connect 27 0 28 0;
#X connect 28 0 7 1;
