#N canvas 934 22 879 637 16;
#X obj 436 258 delwrite~ delay_line 1000;
#X obj 411 401 send~ feedback;
#X obj 436 206 receive~ feedback;
#X obj 409 325 *~;
#X floatatom 361 258 5 0 0 0 - - -;
#X obj 361 290 / 100;
#X obj 311 398 dac~;
#X obj 436 295 delread~ delay_line 250;
#X obj 252 163 *~;
#X obj 290 134 vline~;
#X msg 283 97 1 20 \, 1 20 20 \, 0 20 40;
#X obj 251 60 osc~ 220;
#X connect 2 0 0 0;
#X connect 3 0 6 0;
#X connect 3 0 6 1;
#X connect 3 0 1 0;
#X connect 4 0 5 0;
#X connect 5 0 3 0;
#X connect 7 0 3 1;
#X connect 8 0 0 0;
#X connect 8 0 6 0;
#X connect 8 0 6 1;
#X connect 9 0 8 1;
#X connect 10 0 9 0;
#X connect 11 0 8 0;
