#N canvas 2009 67 1119 506 16;
#X obj 320 430 send~ feedback;
#X obj 436 206 receive~ feedback;
#X obj 312 363 *~;
#X floatatom 264 296 5 0 0 0 - - -;
#X obj 264 328 / 100;
#X obj 252 78 osc~ 440;
#X obj 252 163 *~;
#X obj 513 427 dac~;
#X obj 279 134 vline~;
#X msg 279 104 1 20 \, 1 20 20 \, 0 20 40;
#X obj 436 258 delwrite~ dly 1000;
#X obj 436 292 delread~ dly 250;
#X obj 605 292 delread~ dly 500;
#X obj 773 296 delread~ dly 750;
#X connect 1 0 10 0;
#X connect 2 0 0 0;
#X connect 2 0 7 0;
#X connect 2 0 7 1;
#X connect 3 0 4 0;
#X connect 4 0 2 0;
#X connect 5 0 6 0;
#X connect 6 0 7 0;
#X connect 6 0 7 1;
#X connect 6 0 10 0;
#X connect 8 0 6 1;
#X connect 9 0 8 0;
#X connect 11 0 7 0;
#X connect 12 0 7 1;
#X connect 13 0 7 0;
