#N canvas 934 22 879 637 16;
#X obj 436 258 delwrite~ delay_line 1000;
#X obj 420 506 send~ feedback;
#X obj 436 206 receive~ feedback;
#X obj 409 325 *~;
#X floatatom 362 259 5 0 0 0 - - -;
#X obj 361 290 / 100;
#X obj 311 398 dac~;
#X obj 252 163 loopvox~;
#X obj 241 117 tgl 15 0 empty empty empty 17 7 0 10 -262144 -1 -1 0
1;
#X floatatom 450 373 5 0 0 0 - - -;
#X obj 436 295 delread~ delay_line 250;
#X obj 420 418 lop~;
#X obj 232 20 key;
#X obj 243 74 sel 32;
#X obj 550 426 bp~ 1000 10;
#X floatatom 563 367 5 0 0 0 - - -;
#X connect 2 0 0 0;
#X connect 3 0 6 0;
#X connect 3 0 6 1;
#X connect 3 0 11 0;
#X connect 3 0 14 0;
#X connect 4 0 5 0;
#X connect 5 0 3 0;
#X connect 7 0 0 0;
#X connect 7 0 6 0;
#X connect 7 0 6 1;
#X connect 8 0 7 0;
#X connect 9 0 11 1;
#X connect 10 0 3 1;
#X connect 11 0 1 0;
#X connect 12 0 13 0;
#X connect 13 0 8 0;
#X connect 15 0 14 1;
