#N canvas 702 39 1218 733 16;
#X obj 34 27 tgl 15 0 empty empty empty 17 7 0 10 -262144 -1 -1 0 1
;
#X obj 579 516 dac~;
#X msg 33 -50 \; envelope read hann.txt;
#X obj 33 -5 table envelope 8192;
#X obj 423 232 tabread4~ envelope;
#X obj 611 232 tabread4~ envelope;
#X obj 468 65 phasor~;
#X obj 607 154 wrap~;
#X obj 34 61 loopvox~;
#X floatatom 474 -58 5 0 0 0 - - -;
#X obj 469 376 *~;
#X obj 424 181 *~ 8192;
#X obj 684 356 *~;
#X obj 588 462 +~;
#X obj 606 193 *~ 8912;
#X obj 607 122 +~ 0.5;
#X obj 34 99 delwrite~ delay_line 25;
#X obj 246 269 *~ 25;
#X obj 246 299 vd~ delay_line 25;
#X obj 821 226 *~ 25;
#X obj 821 256 vd~ delay_line 25;
#X obj 475 -4 / -25;
#X connect 0 0 8 0;
#X connect 4 0 10 1;
#X connect 5 0 12 0;
#X connect 6 0 11 0;
#X connect 6 0 15 0;
#X connect 6 0 17 0;
#X connect 7 0 14 0;
#X connect 7 0 19 0;
#X connect 8 0 16 0;
#X connect 9 0 21 0;
#X connect 10 0 13 0;
#X connect 11 0 4 0;
#X connect 12 0 13 1;
#X connect 13 0 1 0;
#X connect 13 0 1 1;
#X connect 14 0 5 0;
#X connect 15 0 7 0;
#X connect 17 0 18 0;
#X connect 18 0 10 0;
#X connect 19 0 20 0;
#X connect 20 0 12 1;
#X connect 21 0 6 0;
