#N canvas 1139 93 710 621 16;
#X obj 172 526 delwrite~ dly1 43;
#X obj 259 486 delwrite~ dly2 59;
#X obj 326 443 delwrite~ dly3 71;
#X obj 391 401 delwrite~ dly4 89;
#X obj 155 149 +~;
#X obj 203 150 +~;
#X obj 185 39 delread~ dly1 43;
#X obj 231 70 delread~ dly2 59;
#X obj 159 243 +~;
#X obj 316 243 +~;
#X obj 202 246 -~;
#X obj 356 242 -~;
#X obj 319 101 delread~ dly1 71;
#X obj 365 132 delread~ dly2 89;
#X obj 157 321 +~;
#X obj 212 325 +~;
#X obj 322 323 -~;
#X obj 382 319 -~;
#X text 579 35 p. 195;
#X obj 169 390 *~;
#X obj 216 389 *~;
#X obj 309 383 *~;
#X obj 399 372 *~;
#X floatatom 547 217 5 0 0 0 - - -;
#X obj 550 261 / 200;
#X obj 44 344 dac~;
#X obj 45 59 loopvox~;
#X obj 45 16 tgl 15 0 empty empty empty 17 7 0 10 -262144 -1 -1 0 1
;
#X connect 4 0 8 0;
#X connect 4 0 10 0;
#X connect 4 0 25 0;
#X connect 5 0 8 1;
#X connect 5 0 10 1;
#X connect 5 0 25 1;
#X connect 6 0 4 1;
#X connect 7 0 5 1;
#X connect 8 0 14 0;
#X connect 8 0 16 0;
#X connect 9 0 14 1;
#X connect 9 0 16 1;
#X connect 10 0 15 0;
#X connect 10 0 17 0;
#X connect 11 0 15 1;
#X connect 11 0 17 1;
#X connect 12 0 9 0;
#X connect 12 0 11 0;
#X connect 13 0 9 1;
#X connect 13 0 11 1;
#X connect 14 0 19 0;
#X connect 15 0 20 0;
#X connect 16 0 21 0;
#X connect 17 0 22 0;
#X connect 19 0 0 0;
#X connect 20 0 1 0;
#X connect 21 0 2 0;
#X connect 22 0 3 0;
#X connect 23 0 24 0;
#X connect 24 0 19 1;
#X connect 24 0 20 1;
#X connect 24 0 21 1;
#X connect 24 0 22 1;
#X connect 26 0 4 0;
#X connect 26 0 5 0;
#X connect 27 0 26 0;
