#N canvas 78 48 831 678 16;
#X obj 34 27 tgl 15 0 empty empty empty 17 7 0 10 -262144 -1 -1 1 1
;
#X obj 410 538 dac~;
#X msg 33 -50 \; envelope read hann.txt;
#X obj 33 -5 table envelope 8192;
#X obj 596 414 tabread4~ envelope;
#X obj 329 155 phasor~;
#X obj 34 61 loopvox~;
#X floatatom 329 53 5 0 0 0 - - -;
#X obj 418 476 *~;
#X obj 597 363 *~ 8192;
#X obj 233 289 samphold~;
#X obj 232 182 noise~;
#X obj 33 100 delwrite~ delay_line 1000;
#X obj 329 104 expr 1 / ( $f1 / 1000 );
#X obj 220 352 expr~ $v1 * ( 1000 - $f2 );
#X obj 232 224 +~ 1;
#X obj 234 253 /~ 2;
#X text 574 108 ms to hz;
#X obj 411 411 vd~ delay_line;
#X connect 0 0 6 0;
#X connect 4 0 8 1;
#X connect 5 0 9 0;
#X connect 5 0 10 1;
#X connect 6 0 12 0;
#X connect 7 0 13 0;
#X connect 7 0 14 1;
#X connect 8 0 1 0;
#X connect 8 0 1 1;
#X connect 9 0 4 0;
#X connect 10 0 14 0;
#X connect 11 0 15 0;
#X connect 13 0 5 0;
#X connect 14 0 18 0;
#X connect 15 0 16 0;
#X connect 16 0 10 0;
#X connect 18 0 8 0;
