#N canvas 0 22 663 407 16;
#X obj 34 151 soundfiler;
#X msg 34 94 read -resize /Applications/Pd-0.42-5.app/Contents/Resources/doc/sound/voice.wav
sound_array;
#X obj 34 235 phasor~;
#X obj 34 207 sig~;
#X obj 34 179 expr 1 / ( $f1 / 44100 );
#X obj 34 291 tabread4~ sound_array;
#X obj 34 263 *~;
#X obj 115 236 sig~;
#X obj 34 61 sel 1;
#X obj 34 32 inlet;
#X obj 34 328 outlet~;
#N canvas 0 22 450 300 (subpatch) 0;
#X array sound_array 62079 float 2;
#X coords 0 1 62079 -1 200 140 1;
#X restore 318 221 graph;
#X connect 0 0 4 0;
#X connect 0 0 7 0;
#X connect 1 0 0 0;
#X connect 2 0 6 0;
#X connect 3 0 2 0;
#X connect 4 0 3 0;
#X connect 5 0 10 0;
#X connect 6 0 5 0;
#X connect 7 0 6 1;
#X connect 8 0 1 0;
#X connect 8 1 3 0;
#X connect 9 0 8 0;
