#N canvas 320 194 528 450 10;
#X obj 36 240 gemwin;
#X msg 57 161 create \, 1;
#X msg 58 209 0 \, destroy;
#X obj 180 385 rectangle 1 2;
#X obj 179 119 gemhead;
#X floatatom 218 362 5 0 0 0 - - -;
#X obj 179 164 colorRGB;
#X floatatom 222 144 5 0 0 0 - - -;
#X floatatom 256 143 5 0 0 0 - - -;
#X floatatom 187 142 5 0 0 0 - - -;
#X floatatom 224 192 5 0 0 0 - - -;
#X floatatom 258 191 5 0 0 0 - - -;
#X floatatom 189 190 5 0 0 0 - - -;
#X obj 181 212 translateXYZ;
#X floatatom 220 238 5 0 0 0 - - -;
#X floatatom 254 237 5 0 0 0 - - -;
#X floatatom 185 236 5 0 0 0 - - -;
#X obj 177 259 rotateXYZ;
#X obj 337 385 rectangle 1 2;
#X obj 339 123 gemhead;
#X floatatom 375 362 5 0 0 0 - - -;
#X obj 339 168 colorRGB;
#X floatatom 382 148 5 0 0 0 - - -;
#X floatatom 416 147 5 0 0 0 - - -;
#X floatatom 347 146 5 0 0 0 - - -;
#X floatatom 384 196 5 0 0 0 - - -;
#X floatatom 418 195 5 0 0 0 - - -;
#X floatatom 349 194 5 0 0 0 - - -;
#X obj 341 216 translateXYZ;
#X floatatom 380 242 5 0 0 0 - - -;
#X floatatom 414 241 5 0 0 0 - - -;
#X floatatom 345 240 5 0 0 0 - - -;
#X obj 337 263 rotateXYZ;
#X msg 38 122 dimen 300 300;
#X obj 179 333 pix_texture;
#X obj 177 309 pix_image;
#X msg 186 285 open temp1.jpg;
#X text 66 22 using Gem to paint polygons. The "gemchain" at left paints
an image onto its rectangle \; the one at right is plain (no "texture").
;
#X text 46 86 set window;
#X text 48 103 size;
#X text 55 143 start drawing;
#X text 57 193 stop drawing;
#X connect 1 0 0 0;
#X connect 2 0 0 0;
#X connect 4 0 6 0;
#X connect 5 0 3 1;
#X connect 6 0 13 0;
#X connect 7 0 6 2;
#X connect 8 0 6 3;
#X connect 9 0 6 1;
#X connect 10 0 13 2;
#X connect 11 0 13 3;
#X connect 12 0 13 1;
#X connect 13 0 17 0;
#X connect 14 0 17 2;
#X connect 15 0 17 3;
#X connect 16 0 17 1;
#X connect 17 0 35 0;
#X connect 19 0 21 0;
#X connect 20 0 18 1;
#X connect 21 0 28 0;
#X connect 22 0 21 2;
#X connect 23 0 21 3;
#X connect 24 0 21 1;
#X connect 25 0 28 2;
#X connect 26 0 28 3;
#X connect 27 0 28 1;
#X connect 28 0 32 0;
#X connect 29 0 32 2;
#X connect 30 0 32 3;
#X connect 31 0 32 1;
#X connect 32 0 18 0;
#X connect 33 0 0 0;
#X connect 34 0 3 0;
#X connect 35 0 34 0;
#X connect 36 0 35 0;
