#N canvas 104 78 562 335 10;
#N canvas 207 123 649 396 works 0;
#X obj 61 41 r gemwin;
#X obj 61 70 gemwin;
#N canvas 16 75 550 359 tables 0;
#N canvas 0 22 450 300 (subpatch) 0;
#X array array1 100 float 3;
#A 0 0.193333 0.2 0.206666 0.206666 0.206666 0.213333 0.22 0.22 0.22
0.22 0.22 0.22 0.22 0.22 0.22 0.22 0.22 0.22 0.22 0.22 0.22 0.22 0.206667
0.206667 0.246667 0.286667 0.446666 0.466666 0.726665 0.926664 1.04666
1.08666 1.14666 1.18666 1.22666 1.30666 1.34666 1.38666 1.46666 1.54666
1.60666 1.64666 1.68666 1.70666 1.74666 1.82666 1.90666 1.98666 2.04666
2.10666 2.20666 2.22666 2.26666 2.30666 2.32666 2.34666 2.34666 2.34666
2.36666 2.36666 2.36666 2.36666 2.36666 2.36666 2.36666 2.36666 2.34666
2.34666 2.34666 2.32666 2.30666 2.30666 2.28666 2.26666 2.26666 2.22666
2.20666 2.14666 2.10666 2.04666 2.00666 2.04666 2.12666 2.20666 2.26666
2.28666 2.30666 2.32666 2.32666 2.32666 2.28666 2.28666 2.28666 2.26666
2.20666 2.06666 2.04666 1.86666 1.58666 1.32666;
#X array array2 100 float 3;
#A 0 0.2 0.2 -1.26666 -1.24666 -1.20666 -1.16666 -1.12666 -1.08666
-1.06 -1.03333 -1.00666 -0.966663 -0.926663 -0.886663 -0.826663 -0.766664
-0.686664 -0.606664 -0.546665 -0.506665 -0.486665 -0.466665 -0.446665
-0.446665 -0.446665 -0.406665 -0.386665 -0.346665 -0.293333 -0.333333
-0.393333 -0.433333 -0.473332 -0.513332 -0.553332 -0.573332 -0.613332
-0.633332 -0.653332 -0.653332 -0.653332 -0.633332 -0.633332 -0.633332
-0.633332 -0.633332 -0.633332 -0.613332 -0.593332 -2.15333 -2.17333
-0.533332 -0.513332 -0.493332 -0.473332 -0.453332 -0.433333 -2.11333
-2.11333 -0.353333 -0.333333 -0.293333 -0.213333 -0.173334 -0.153334
-0.113334 -0.0933338 -0.0333341 0.00666577 0.0666655 0.106665 0.206665
0.266665 0.306665 0.366664 0.426664 0.506664 0.586664 0.666663 0.746663
0.666663 0.626663 0.586664 0.586664 0.546664 0.546664 0.526664 0.526664
0.546664 0.526664 0.566664 0.606663 0.606663 0.646663 0.706663 0.766663
0.886662 0.966662 1.02666 1.30666;
#X coords 0 3 99 -3 400 300 1;
#X restore 101 22 graph;
#X restore 313 59 pd tables;
#X obj 6 118 rect10 array1 array2 20;
#X obj 6 139 rect10 array1 array2 30;
#X obj 6 161 rect10 array1 array2 40;
#X msg 139 47 color 0.6 0.9 0.9;
#X obj 313 165 s doit;
#X obj 315 116 metro 200;
#X obj 313 140 bng 15 250 50 0 empty empty empty 0 -6 0 8 -262144 -1
-1;
#X obj 315 94 tgl 15 0 empty empty empty 0 -6 0 8 -262144 -1 -1 0 1
;
#X obj 8 94 rect10 array1 array2 10;
#X obj 5 185 rect10 array1 array2 50;
#X obj 7 207 rect10 array1 array2 60;
#X obj 7 230 rect10 array1 array2 70;
#X obj 7 249 rect10 array1 array2 80;
#X obj 5 270 rect10 array1 array2 90;
#X obj 284 228 gemhead;
#X obj 284 372 polygon 4;
#X obj 285 251 colorRGB 0.6 0.3 0.3;
#X msg 152 75 0 \, 1;
#X msg 311 272 -3 -2.5 0;
#X msg 334 292 -3 -2.3 0;
#X msg 341 323 3 -1.9 0;
#X msg 358 355 3 -2.1 0;
#X obj 140 22 loadbang;
#X obj 420 279 loadbang;
#X obj 624 210 loadbang;
#X obj 484 397 polygon 6;
#X msg 534 268 0.05 0.07 0;
#X msg 541 299 -0.05 0.07 0;
#X msg 508 239 0.1 0 0;
#X msg 553 325 -0.1 0 0;
#X msg 574 352 -0.05 -0.07 0;
#X msg 588 383 0.05 -0.07 0;
#X obj 477 122 gemhead -10;
#X floatatom 658 140 5 0 0 0 - - -;
#X floatatom 648 107 5 0 0 0 - - -;
#X obj 478 145 colorRGB 0.9 0.9 0.5;
#X obj 480 175 translateXYZ 1.73 1.62 0;
#X obj 850 205 loadbang;
#X obj 710 392 polygon 6;
#X msg 760 263 0.05 0.07 0;
#X msg 767 294 -0.05 0.07 0;
#X msg 734 234 0.1 0 0;
#X msg 779 320 -0.1 0 0;
#X msg 800 347 -0.05 -0.07 0;
#X msg 814 378 0.05 -0.07 0;
#X obj 703 117 gemhead -10;
#X floatatom 884 135 5 0 0 0 - - -;
#X floatatom 874 102 5 0 0 0 - - -;
#X obj 704 140 colorRGB 0.9 0.9 0.5;
#X obj 706 170 translateXYZ 2.08 1.62 0;
#N canvas 0 155 645 384 beak 0;
#X obj 44 66 gemhead;
#X obj 140 362 polygon 3;
#X floatatom 293 209 5 0 0 0 - - -;
#X obj 43 97 colorRGB 1 1 1;
#X msg 127 307 0 0 0;
#X obj 287 296 t b f;
#X obj 189 290 pack 0 -0.1 0;
#X msg 295 185 -0.15;
#X floatatom 319 267 5 0 0 0 - - -;
#X msg 321 239 -0.15;
#X obj 122 282 loadbang;
#X floatatom 204 73 5 0 0 0 - - -;
#X floatatom 267 72 5 0 0 0 - - -;
#X obj 211 16 loadbang;
#X msg 211 45 1.95;
#X obj 195 263 * -1;
#X obj 436 38 gemhead;
#X obj 393 357 polygon 3;
#X obj 435 69 colorRGB 1 1 1;
#X msg 417 311 0 0 0;
#X obj 577 289 t b f;
#X obj 479 287 pack 0 -0.1 0;
#X obj 412 286 loadbang;
#X msg 257 42 1.45;
#X obj 700 76 gemhead;
#X obj 661 363 polygon 3;
#X obj 844 321 pack 0 0 0.2;
#X obj 845 295 t b f;
#X obj 747 293 pack 0 -0.1 0;
#X obj 746 268 * -1;
#X obj 694 315 pack 0 -0.1 0;
#X floatatom 879 239 5 0 0 0 - - -;
#X msg 881 211 -0.15;
#X obj 699 106 colorRGB 0.6 0.6 0.6;
#X obj 587 55 r h;
#X obj 255 181 r w;
#X obj 632 68 * -1;
#X obj 40 129 translateXYZ 1.95 1.56 0;
#X obj 431 164 translateXYZ 1.95 1.56 0;
#X obj 700 170 translateXYZ 1.95 1.56 0;
#X obj 588 81 - 0.5;
#X obj 633 92 - 0.5;
#X obj 287 322 pack 0 0 0.2;
#X obj 576 315 pack 0 0 0.2;
#X connect 0 0 3 0;
#X connect 2 0 15 0;
#X connect 2 0 21 0;
#X connect 2 0 30 0;
#X connect 2 0 29 0;
#X connect 3 0 37 0;
#X connect 4 0 1 1;
#X connect 5 0 42 0;
#X connect 5 1 42 1;
#X connect 6 0 1 2;
#X connect 7 0 2 0;
#X connect 8 0 5 0;
#X connect 8 0 20 0;
#X connect 9 0 8 0;
#X connect 10 0 4 0;
#X connect 11 0 37 1;
#X connect 11 0 38 1;
#X connect 11 0 39 1;
#X connect 12 0 37 2;
#X connect 12 0 38 2;
#X connect 12 0 39 2;
#X connect 13 0 14 0;
#X connect 13 0 23 0;
#X connect 14 0 11 0;
#X connect 15 0 6 0;
#X connect 16 0 18 0;
#X connect 18 0 38 0;
#X connect 19 0 17 1;
#X connect 20 0 43 0;
#X connect 20 1 43 1;
#X connect 21 0 17 2;
#X connect 22 0 19 0;
#X connect 23 0 12 0;
#X connect 24 0 33 0;
#X connect 26 0 25 3;
#X connect 27 0 26 0;
#X connect 27 1 26 1;
#X connect 28 0 25 2;
#X connect 29 0 28 0;
#X connect 30 0 25 1;
#X connect 31 0 27 0;
#X connect 32 0 31 0;
#X connect 33 0 39 0;
#X connect 34 0 36 0;
#X connect 34 0 40 0;
#X connect 35 0 2 0;
#X connect 36 0 41 0;
#X connect 37 0 1 0;
#X connect 38 0 17 0;
#X connect 39 0 25 0;
#X connect 40 0 8 0;
#X connect 41 0 31 0;
#X connect 42 0 1 3;
#X connect 43 0 17 3;
#X restore 436 61 pd beak;
#X msg 662 68 1.73;
#X msg 708 65 1.62;
#X obj 662 39 loadbang;
#X msg 887 69 1.62;
#X obj 841 43 loadbang;
#X msg 841 72 2.08;
#N canvas 289 57 452 351 sound 0;
#X obj 77 40 r~ audio-in;
#X obj 69 257 s h;
#X floatatom 69 235 5 0 0 0 - - -;
#X floatatom 203 272 5 0 0 0 - - -;
#X obj 201 299 s w;
#X obj 71 125 - 30;
#X floatatom 415 261 5 0 0 0 - - -;
#X obj 68 149 max 0;
#X obj 301 129 f;
#X obj 319 167 pack;
#X obj 301 106 t b f;
#X obj 319 191 route 0 1;
#X obj 358 228 < 50;
#X obj 322 226 > 65;
#X obj 316 254 sel 1;
#X obj 360 256 sel 1;
#X obj 361 279 0;
#X obj 315 277 1;
#X obj 184 175 random 50;
#X obj 169 236 expr 0.1+0.5*$f1*$f1;
#X obj 179 206 / 50;
#X floatatom 135 143 5 0 0 0 - - -;
#X floatatom 155 109 5 0 0 0 - - -;
#X obj 24 180 expr $f1*$f1*0.0005;
#X obj 318 320 bng 15 250 50 0 empty empty empty 17 7 0 10 -262144
-1 -1;
#X obj 357 316 bng 15 250 50 0 empty empty empty 17 7 0 10 -262144
-1 -1;
#X obj 76 63 env~ 4096;
#X connect 0 0 26 0;
#X connect 2 0 1 0;
#X connect 3 0 4 0;
#X connect 5 0 7 0;
#X connect 5 0 21 0;
#X connect 7 0 23 0;
#X connect 8 0 9 0;
#X connect 9 0 11 0;
#X connect 10 0 8 0;
#X connect 10 1 9 1;
#X connect 11 0 13 0;
#X connect 11 1 12 0;
#X connect 12 0 15 0;
#X connect 13 0 14 0;
#X connect 13 0 6 0;
#X connect 14 0 17 0;
#X connect 14 0 18 0;
#X connect 15 0 16 0;
#X connect 16 0 8 1;
#X connect 16 0 25 0;
#X connect 17 0 8 1;
#X connect 17 0 24 0;
#X connect 18 0 20 0;
#X connect 19 0 3 0;
#X connect 20 0 19 0;
#X connect 23 0 2 0;
#X connect 26 0 10 0;
#X connect 26 0 22 0;
#X connect 26 0 5 0;
#X restore 498 32 pd sound;
#X obj 403 129 loadbang;
#X obj 72 291 gemhead;
#X obj 72 435 polygon 4;
#X obj 208 342 loadbang;
#X obj 73 314 colorRGB 0.6 0.9 0.9;
#X msg 99 335 -5 -5 -1;
#X msg 122 355 -5 5 -1;
#X msg 129 386 5 5 -1;
#X msg 146 418 5 -5 -1;
#X connect 0 0 1 0;
#X connect 6 0 1 0;
#X connect 8 0 9 0;
#X connect 9 0 7 0;
#X connect 10 0 8 0;
#X connect 17 0 19 0;
#X connect 19 0 18 0;
#X connect 20 0 1 0;
#X connect 21 0 18 1;
#X connect 22 0 18 2;
#X connect 23 0 18 3;
#X connect 24 0 18 4;
#X connect 26 0 21 0;
#X connect 26 0 22 0;
#X connect 26 0 23 0;
#X connect 26 0 24 0;
#X connect 27 0 31 0;
#X connect 27 0 29 0;
#X connect 27 0 30 0;
#X connect 27 0 32 0;
#X connect 27 0 33 0;
#X connect 27 0 34 0;
#X connect 29 0 28 2;
#X connect 30 0 28 3;
#X connect 31 0 28 1;
#X connect 32 0 28 4;
#X connect 33 0 28 5;
#X connect 34 0 28 6;
#X connect 35 0 38 0;
#X connect 36 0 39 2;
#X connect 37 0 39 1;
#X connect 38 0 39 0;
#X connect 39 0 28 0;
#X connect 40 0 44 0;
#X connect 40 0 42 0;
#X connect 40 0 43 0;
#X connect 40 0 45 0;
#X connect 40 0 46 0;
#X connect 40 0 47 0;
#X connect 42 0 41 2;
#X connect 43 0 41 3;
#X connect 44 0 41 1;
#X connect 45 0 41 4;
#X connect 46 0 41 5;
#X connect 47 0 41 6;
#X connect 48 0 51 0;
#X connect 49 0 52 2;
#X connect 50 0 52 1;
#X connect 51 0 52 0;
#X connect 52 0 41 0;
#X connect 54 0 37 0;
#X connect 55 0 36 0;
#X connect 56 0 54 0;
#X connect 56 0 55 0;
#X connect 57 0 49 0;
#X connect 58 0 59 0;
#X connect 58 0 57 0;
#X connect 59 0 50 0;
#X connect 61 0 9 0;
#X connect 62 0 65 0;
#X connect 64 0 66 0;
#X connect 64 0 67 0;
#X connect 64 0 68 0;
#X connect 64 0 69 0;
#X connect 65 0 63 0;
#X connect 66 0 63 1;
#X connect 67 0 63 2;
#X connect 68 0 63 3;
#X connect 69 0 63 4;
#X restore 24 82 pd works;
#X msg 18 151 \; gemwin 0 \, destroy;
#X obj 416 149 dbtorms;
#X obj 400 174 *~;
#X floatatom 416 126 5 0 120 0 - - -;
#X obj 403 258 s~ audio-in;
#X obj 400 79 adc~;
#X obj 399 103 hip~ 3;
#X obj 401 196 +~;
#N canvas 5 49 450 300 whatever 0;
#X obj 108 79 inlet~;
#X restore 413 226 pd whatever;
#X obj 35 219 loadbang;
#X msg 34 243 \; pd dsp 1;
#X msg 21 106 \; gemwin dimen 300 300 \, create \, 1;
#X text 38 16 The animated bird example using Gem. An envelope follower
moves the "bird"'s beak.;
#X connect 2 0 3 1;
#X connect 3 0 8 0;
#X connect 4 0 2 0;
#X connect 6 0 7 0;
#X connect 7 0 3 0;
#X connect 8 0 9 0;
#X connect 8 0 5 0;
#X connect 10 0 11 0;
