#N canvas 192 399 586 387 10;
#X obj 72 59 gemhead;
#X obj 304 268 polygon 4;
#X obj 262 159 tabread \$1;
#X obj 198 64 f \$3;
#X obj 229 90 f \$4;
#X obj 200 90 +;
#X obj 224 19 r doit;
#X obj 221 42 t b b;
#X obj 338 159 tabread \$2;
#X obj 389 109 + 1;
#X obj 390 131 t f f;
#X obj 414 160 tabread \$1;
#X obj 490 160 tabread \$2;
#X obj 200 119 t f f f f f;
#X obj 168 226 pack 0 0 0;
#X obj 220 171 - 50;
#X obj 220 192 * 0.05;
#X obj 164 164 - 50;
#X obj 164 185 * 0.05;
#X obj 250 227 pack 0 0 0;
#X obj 333 228 pack 0 0 0;
#X obj 415 229 pack 0 0 0;
#X obj 77 102 colorRGB 0 0 0;
#X obj 219 150 + 2;
#X connect 0 0 22 0;
#X connect 2 0 14 1;
#X connect 3 0 5 0;
#X connect 4 0 5 1;
#X connect 5 0 13 0;
#X connect 6 0 7 0;
#X connect 7 0 3 0;
#X connect 7 1 4 0;
#X connect 8 0 19 1;
#X connect 9 0 10 0;
#X connect 10 0 11 0;
#X connect 10 1 12 0;
#X connect 11 0 20 1;
#X connect 12 0 21 1;
#X connect 13 0 17 0;
#X connect 13 1 23 0;
#X connect 13 2 2 0;
#X connect 13 3 8 0;
#X connect 13 4 9 0;
#X connect 14 0 1 1;
#X connect 15 0 16 0;
#X connect 16 0 20 0;
#X connect 16 0 21 0;
#X connect 17 0 18 0;
#X connect 18 0 14 0;
#X connect 18 0 19 0;
#X connect 19 0 1 2;
#X connect 20 0 1 4;
#X connect 21 0 1 3;
#X connect 22 0 1 0;
#X connect 23 0 15 0;
